<?xml version="1.0" encoding="UTF-8" standalone="no"?>
<!-- Created with Inkscape (http://www.inkscape.org/) -->

<svg
   xmlns:dc="http://purl.org/dc/elements/1.1/"
   xmlns:cc="http://creativecommons.org/ns#"
   xmlns:rdf="http://www.w3.org/1999/02/22-rdf-syntax-ns#"
   xmlns:svg="http://www.w3.org/2000/svg"
   xmlns="http://www.w3.org/2000/svg"
   xmlns:sodipodi="http://sodipodi.sourceforge.net/DTD/sodipodi-0.dtd"
   xmlns:inkscape="http://www.inkscape.org/namespaces/inkscape"
   width="297mm"
   height="210mm"
   viewBox="0 0 297 210"
   version="1.1"
   id="svg8"
   inkscape:version="0.92.3 (2405546, 2018-03-11)"
   sodipodi:docname="rusted_gear.svg">
  <defs
     id="defs2">
    <filter
       inkscape:menu-tooltip="Roughen all inside shapes"
       inkscape:menu="Distort"
       inkscape:label="Roughen Inside"
       style="color-interpolation-filters:sRGB;"
       id="filter4579">
      <feGaussianBlur
         result="result1"
         stdDeviation="3"
         id="feGaussianBlur4557" />
      <feBlend
         in2="result1"
         result="result5"
         mode="multiply"
         in="result1"
         id="feBlend4559" />
      <feGaussianBlur
         in="result5"
         result="result6"
         stdDeviation="1"
         id="feGaussianBlur4561" />
      <feComposite
         result="result8"
         in2="result5"
         in="result6"
         operator="xor"
         id="feComposite4563" />
      <feComposite
         in="result6"
         result="fbSourceGraphic"
         operator="xor"
         in2="result8"
         id="feComposite4565" />
      <feSpecularLighting
         in="fbSourceGraphic"
         result="result1"
         lighting-color="rgb(255,255,255)"
         surfaceScale="2"
         specularConstant="2.2"
         specularExponent="55"
         id="feSpecularLighting4569">
        <fePointLight
           x="-5000"
           y="-10000"
           z="20000"
           id="fePointLight4567" />
      </feSpecularLighting>
      <feComposite
         in2="fbSourceGraphic"
         in="result1"
         result="result2"
         operator="in"
         id="feComposite4571" />
      <feComposite
         in="fbSourceGraphic"
         result="result4"
         operator="arithmetic"
         k2="2"
         k3="1"
         in2="result2"
         id="feComposite4573" />
      <feComposite
         in2="result4"
         in="result4"
         operator="in"
         result="result91"
         id="feComposite4575" />
      <feBlend
         mode="darken"
         in2="result91"
         id="feBlend4577"
         result="fbSourceGraphic" />
      <feColorMatrix
         result="fbSourceGraphicAlpha"
         in="fbSourceGraphic"
         values="0 0 0 -1 0 0 0 0 -1 0 0 0 0 -1 0 0 0 0 1 0"
         id="feColorMatrix4581" />
      <feTurbulence
         id="feTurbulence4583"
         numOctaves="5"
         seed="0"
         type="fractalNoise"
         baseFrequency="0.08"
         in="fbSourceGraphic" />
      <feGaussianBlur
         id="feGaussianBlur4585"
         stdDeviation="0.5"
         result="result91" />
      <feDisplacementMap
         in2="result91"
         id="feDisplacementMap4587"
         scale="20"
         yChannelSelector="G"
         xChannelSelector="R"
         in="fbSourceGraphic"
         result="result1" />
      <feComposite
         in2="fbSourceGraphic"
         id="feComposite4589"
         in="result1"
         operator="atop" />
    </filter>
    <filter
       inkscape:label="Smear Transparency"
       inkscape:menu="Overlays"
       inkscape:menu-tooltip="Paint objects with a transparent turbulence which turns around color edges"
       height="1.4"
       y="-0.2"
       width="1.4"
       x="-0.2"
       style="color-interpolation-filters:sRGB;"
       id="filter4607">
      <feTurbulence
         baseFrequency="0.05"
         numOctaves="5"
         type="fractalNoise"
         result="result91"
         id="feTurbulence4601" />
      <feDisplacementMap
         scale="25"
         result="result5"
         xChannelSelector="R"
         in="SourceGraphic"
         in2="result91"
         id="feDisplacementMap4603" />
      <feComposite
         in="SourceGraphic"
         operator="atop"
         in2="result5"
         id="feComposite4605"
         result="fbSourceGraphic" />
      <feColorMatrix
         result="fbSourceGraphicAlpha"
         in="fbSourceGraphic"
         values="0 0 0 -1 0 0 0 0 -1 0 0 0 0 -1 0 0 0 0 1 0"
         id="feColorMatrix4839" />
      <feTurbulence
         id="feTurbulence4841"
         result="result3"
         baseFrequency="0.3"
         type="fractalNoise"
         seed="0"
         numOctaves="3"
         in="fbSourceGraphic" />
      <feGaussianBlur
         id="feGaussianBlur4843"
         stdDeviation="1.5"
         result="result91" />
      <feDisplacementMap
         in2="result91"
         id="feDisplacementMap4845"
         result="fbSourceGraphic"
         in="fbSourceGraphic"
         xChannelSelector="R"
         yChannelSelector="G"
         scale="30" />
      <feColorMatrix
         id="feColorMatrix4847"
         type="luminanceToAlpha"
         in="fbSourceGraphic"
         result="result0" />
      <feColorMatrix
         id="feColorMatrix4849"
         result="result2"
         values="1 0 0 0 0 0 1 0 0 0 0 0 1 0 0 0 0 0 1 0 " />
      <feComposite
         in2="result2"
         id="feComposite4851"
         operator="over"
         in="result3"
         result="result4" />
      <feGaussianBlur
         id="feGaussianBlur4853"
         stdDeviation="2"
         result="result5" />
      <feDisplacementMap
         in2="result3"
         id="feDisplacementMap4855"
         scale="100"
         xChannelSelector="R"
         in="result5"
         yChannelSelector="G" />
      <feColorMatrix
         id="feColorMatrix4857"
         values="1 0 0 0 0 0 1 0 0 0 0 0 1 0 0 0 0 0 6.5 -4.5 "
         result="result92" />
      <feComposite
         in2="result92"
         id="feComposite4859"
         in="fbSourceGraphic"
         operator="out"
         result="fbSourceGraphic" />
      <feColorMatrix
         result="fbSourceGraphicAlpha"
         in="fbSourceGraphic"
         values="0 0 0 -1 0 0 0 0 -1 0 0 0 0 -1 0 0 0 0 1 0"
         id="feColorMatrix4861" />
      <feColorMatrix
         id="feColorMatrix4863"
         in="fbSourceGraphic"
         result="result1"
         type="luminanceToAlpha" />
      <feComposite
         in2="result1"
         id="feComposite4865"
         k3="1"
         in="fbSourceGraphic"
         result="result2"
         operator="out" />
      <feGaussianBlur
         id="feGaussianBlur4867"
         stdDeviation="0.7"
         result="result10" />
      <feBlend
         in2="result10"
         id="feBlend4869"
         mode="screen"
         in="result10"
         result="fbSourceGraphic" />
      <feGaussianBlur
         id="feGaussianBlur4871"
         stdDeviation="3"
         result="result8"
         in="fbSourceGraphic" />
      <feTurbulence
         id="feTurbulence4873"
         seed="0"
         result="result7"
         type="fractalNoise"
         numOctaves="1"
         baseFrequency="0.3" />
      <feColorMatrix
         id="feColorMatrix4875"
         result="result9"
         values="1 0 0 0 0 0 1 0 0 0 0 0 1 0 0 0 0 0 1.2 -0.2 " />
      <feComposite
         in2="result8"
         id="feComposite4877"
         result="result6"
         operator="atop"
         in="result8" />
      <feDisplacementMap
         in2="result6"
         id="feDisplacementMap4879"
         in="result9"
         xChannelSelector="R"
         yChannelSelector="A"
         scale="100"
         result="result4" />
      <feComposite
         in2="result4"
         id="feComposite4881"
         result="result2"
         operator="arithmetic"
         in="result8"
         k1="2" />
      <feComposite
         in2="result2"
         id="feComposite4883"
         result="fbSourceGraphic"
         in="fbSourceGraphic"
         operator="in" />
    </filter>
  </defs>
  <sodipodi:namedview
     id="base"
     pagecolor="#ffffff"
     bordercolor="#666666"
     borderopacity="1.0"
     inkscape:pageopacity="0.0"
     inkscape:pageshadow="2"
     inkscape:zoom="0.35"
     inkscape:cx="419.81279"
     inkscape:cy="340.19025"
     inkscape:document-units="mm"
     inkscape:current-layer="layer1"
     showgrid="false"
     inkscape:window-width="1920"
     inkscape:window-height="1017"
     inkscape:window-x="-8"
     inkscape:window-y="-8"
     inkscape:window-maximized="1" />
  <metadata
     id="metadata5">
    <rdf:RDF>
      <cc:Work
         rdf:about="">
        <dc:format>image/svg+xml</dc:format>
        <dc:type
           rdf:resource="http://purl.org/dc/dcmitype/StillImage" />
        <dc:title></dc:title>
      </cc:Work>
    </rdf:RDF>
  </metadata>
  <g
     inkscape:label="Layer 1"
     inkscape:groupmode="layer"
     id="layer1"
     transform="translate(0,-87)">
    <g
       id="g4887"
       transform="matrix(0.6197193,0,0,0.6197193,30.208613,80.289696)">
      <path
         inkscape:connector-curvature="0"
         id="path4544"
         d="m 197.71722,36.284823 a 150,150 0 0 0 -24.78919,2.097031 L 166.37545,65.36987 A 125,125 0 0 0 134.43787,78.658464 L 110.80469,64.259342 A 150,150 0 0 0 75.65128,99.306303 l 14.43065,23.685367 a 125,125 0 0 0 -13.20695,31.93345 l -26.92032,6.53655 a 150,150 0 0 0 -2.23759,24.82329 150,150 0 0 0 2.09651,24.78919 l 26.98802,6.55257 a 125,125 0 0 0 13.28911,31.9381 l -14.3986,23.63215 a 150,150 0 0 0 35.04644,35.15341 l 23.68537,-14.43064 a 125,125 0 0 0 31.93345,13.20746 l 6.53655,26.92032 a 150,150 0 0 0 24.8233,2.23759 150,150 0 0 0 24.78919,-2.09703 l 6.55256,-26.98801 a 125,125 0 0 0 31.93706,-13.2886 l 23.63319,14.3986 a 150,150 0 0 0 35.15289,-35.04644 l -14.43064,-23.68589 a 125,125 0 0 0 13.20694,-31.93293 l 26.92085,-6.53656 a 150,150 0 0 0 2.23759,-24.82329 150,150 0 0 0 -2.09651,-24.78918 l -26.98853,-6.55309 A 125,125 0 0 0 305.34319,123.00562 L 319.74182,99.372963 A 150,150 0 0 0 284.69537,64.219552 l -23.6859,14.430644 A 125,125 0 0 0 229.07654,65.44325 l -6.53603,-26.920836 a 150,150 0 0 0 -24.82329,-2.237591 z m -5.3e-4,75.000067 a 75,75 0 0 1 75.00006,75.00007 75,75 0 0 1 -75.00006,75.00008 75,75 0 0 1 -75.00007,-75.00008 75,75 0 0 1 75.00007,-75.00007 z"
         style="fill:#280b0b;stroke-width:0.57554567;filter:url(#filter4579)" />
      <path
         inkscape:connector-curvature="0"
         id="path4555"
         d="m 195.32314,46.43185 c -4.7694,1.098702 -10.05386,-1.07743 -14.51172,1.214843 -3.2403,8.9055 -1.20333,21.649728 -10.73242,27.111329 -6.01273,2.553804 -12.72336,2.98501 -18.41992,6.425781 -6.0028,2.595898 -11.78614,5.678723 -17.36133,9.09375 -7.609,-4.636259 -15.2174,-9.273519 -22.82617,-13.910157 -8.69211,6.854663 -16.734169,14.87933 -23.705079,23.605468 4.62844,7.594936 9.25548,15.190736 13.884769,22.785156 -7.465669,12.59389 -13.349679,26.19533 -16.658199,40.48437 -8.68808,2.10971 -17.37632,4.21869 -26.06446,6.32813 -1.408,11.07268 -1.41899,22.31831 -0.10351,33.40039 8.66401,2.10306 17.32839,4.20461 25.99218,6.30859 3.63633,14.19325 9.11113,27.97783 16.898439,40.41992 -4.639829,7.60893 -9.275719,15.22025 -13.914059,22.83008 6.85466,8.69212 14.879329,16.73417 23.605469,23.70508 7.59494,-4.62844 15.19073,-9.25548 22.78515,-13.88477 12.59472,7.46549 26.19518,13.3538 40.48633,16.65821 2.10924,8.68802 4.21736,17.37632 6.32617,26.06445 11.07269,1.408 22.31832,1.41899 33.40039,0.10352 2.10306,-8.66402 4.20462,-17.3284 6.3086,-25.99219 14.19324,-3.63633 27.97782,-9.11113 40.41992,-16.89844 7.60884,4.63932 15.22026,9.2744 22.83008,13.91211 8.66812,-6.82665 16.70608,-14.85398 23.70508,-23.60156 -4.62847,-7.59623 -9.25532,-15.19344 -13.88477,-22.78906 7.42704,-12.51802 13.3524,-26.1848 16.66016,-40.48438 8.68743,-2.10966 17.37501,-4.2187 26.0625,-6.32812 1.40267,-10.94104 1.4204,-22.45287 0.10351,-33.39649 -8.66467,-2.10368 -17.32966,-4.20604 -25.99414,-6.31055 -3.63779,-14.19328 -9.10628,-27.97897 -16.89844,-40.41992 4.63992,-7.60952 9.27571,-15.22156 13.91407,-22.83203 -6.92519,-8.769549 -14.87433,-16.727172 -23.60352,-23.701167 -7.59557,4.627823 -15.19217,9.253957 -22.78711,13.882813 -12.58564,-7.463631 -26.18185,-13.343383 -40.46094,-16.65625 -2.26427,-8.694029 -4.07531,-17.429119 -6.4375,-26.078125 -6.30315,-0.811889 -12.66689,-1.112907 -19.01953,-1.050781 z m 4.47266,54.81054 c 45.24739,0.0963 85.77655,42.2771 82.99219,87.66992 -1.03345,40.48311 -34.24035,78.23051 -75.05379,81.86021 -38.35307,4.62407 -78.84462,-19.56327 -90.51848,-56.88364 -12.54511,-36.48659 2.48035,-81.24287 36.63158,-100.34089 13.77124,-8.30347 29.8771,-12.5689 45.9485,-12.3056 z"
         style="fill:#803300;stroke-width:0.57554567;filter:url(#filter4607)" />
    </g>
  </g>
</svg>
