<?xml version="1.0" encoding="UTF-8" standalone="no"?>
<svg
   version="1.1"
   width="435"
   height="540"
   id="svg13"
   sodipodi:docname="logo_mini_f.svg"
   inkscape:version="1.4.3 (0d15f75042, 2025-12-25)"
   xmlns:inkscape="http://www.inkscape.org/namespaces/inkscape"
   xmlns:sodipodi="http://sodipodi.sourceforge.net/DTD/sodipodi-0.dtd"
   xmlns="http://www.w3.org/2000/svg"
   xmlns:svg="http://www.w3.org/2000/svg">
  <defs
     id="defs13" />
  <sodipodi:namedview
     id="namedview13"
     pagecolor="#ffffff"
     bordercolor="#000000"
     borderopacity="0.25"
     inkscape:showpageshadow="2"
     inkscape:pageopacity="0.0"
     inkscape:pagecheckerboard="0"
     inkscape:deskcolor="#d1d1d1"
     inkscape:zoom="2.040134"
     inkscape:cx="196.55572"
     inkscape:cy="180.62539"
     inkscape:window-width="1912"
     inkscape:window-height="972"
     inkscape:window-x="47"
     inkscape:window-y="37"
     inkscape:window-maximized="0"
     inkscape:current-layer="svg13" />
  <path
     d="M0 0 C0.98552353 -0.00428513 1.97104706 -0.00857025 2.98643494 -0.01298523 C5.0545068 -0.01868843 7.12259871 -0.01925868 9.19067383 -0.01489258 C12.33514801 -0.01172348 15.47868793 -0.03527423 18.62304688 -0.06054688 C20.64453008 -0.06281954 22.66601578 -0.06352352 24.6875 -0.0625 C25.61587173 -0.07170975 26.54424347 -0.08091949 27.50074768 -0.09040833 C33.92567654 -0.04534118 40.81983984 0.45689854 45.97401428 4.69633484 C48.09493405 7.30726492 48.32114024 10.4413784 48.83984375 13.67578125 C48.96351318 14.3831543 49.08718262 15.09052734 49.21459961 15.81933594 C50.17740941 21.40450975 51.00144177 27.01115495 51.75 32.62890625 C52.27736558 35.30089185 52.70893707 37.07684855 54.27734375 39.30078125 C56.57775493 40.67076344 56.57775493 40.67076344 59.40234375 41.67578125 C61.01302734 42.30613281 61.01302734 42.30613281 62.65625 42.94921875 C65.18454031 43.89289561 67.71306472 44.83590372 70.2421875 45.77734375 C70.91540039 46.02806641 71.58861328 46.27878906 72.28222656 46.53710938 C73.65655979 47.04718464 75.03222499 47.55368502 76.40917969 48.05664062 C80.45474001 49.55068448 84.29101181 51.24238449 88.15234375 53.17578125 C93.30468525 55.54015919 97.66948331 56.52415208 103.27734375 55.30078125 C108.23521486 53.21879943 112.37212326 50.04342332 116.55078125 46.7109375 C117.11692139 46.26218262 117.68306152 45.81342773 118.26635742 45.35107422 C119.37288126 44.4632467 120.46762596 43.56047058 121.5480957 42.64111328 C125.37720022 39.52029982 128.33099749 38.32904609 133.27734375 38.30078125 C147.74566806 44.59718164 161.71361648 61.60555991 171.52734375 73.67578125 C172.22670044 74.51375244 172.22670044 74.51375244 172.94018555 75.36865234 C175.99883401 79.26358218 177.30004742 82.3343533 177.27734375 87.30078125 C175.87109375 90.0390625 175.87109375 90.0390625 173.77734375 92.61328125 C173.04257812 93.55558594 172.3078125 94.49789062 171.55078125 95.46875 C170.80054688 96.40332031 170.0503125 97.33789062 169.27734375 98.30078125 C162.55171887 106.88091691 162.55171887 106.88091691 160.27734375 117.30078125 C161.266102 123.66057194 164.74468345 129.45821644 167.50415039 135.20483398 C171.5808563 143.83463216 175.04348662 153.01431803 177.27734375 162.30078125 C177.98753662 162.43653564 178.69772949 162.57229004 179.42944336 162.7121582 C182.6924849 163.3395947 185.95363891 163.97636995 189.21484375 164.61328125 C190.33181641 164.82662109 191.44878906 165.03996094 192.59960938 165.25976562 C209.63703947 168.60729588 209.63703947 168.60729588 213.44604492 172.53979492 C218.82592504 180.65085535 217.59661518 192.70843745 217.53808594 202.12939453 C217.52738829 204.16729719 217.53804146 206.20431166 217.55078125 208.2421875 C217.586135 233.79910598 217.586135 233.79910598 211.27734375 240.30078125 C208.82421875 241.33984375 208.82421875 241.33984375 206.02734375 241.92578125 C204.97804688 242.15523437 203.92875 242.3846875 202.84765625 242.62109375 C200.28169438 243.10958102 197.71581385 243.58444916 195.14453125 244.04296875 C194.44102539 244.16978027 193.73751953 244.2965918 193.01269531 244.42724609 C191.63895563 244.67039992 190.2633033 244.90305867 188.88574219 245.12353516 C184.55857495 245.86573888 180.99964554 246.94898822 177.27734375 249.30078125 C175.89561182 251.25789962 175.89561182 251.25789962 175.21484375 253.61328125 C174.9003125 254.50144531 174.58578125 255.38960937 174.26171875 256.3046875 C173.77445312 257.78775391 173.77445312 257.78775391 173.27734375 259.30078125 C170.33440386 267.99488887 167.06756175 276.07376688 162.73046875 284.14453125 C160.02218815 290.02703321 159.95075523 293.95416456 162.15478516 299.9453125 C164.56700578 305.00688374 168.27445548 309.23135799 171.80273438 313.55078125 C175.3205916 318.10935439 177.19545291 321.4221886 176.73217773 327.28271484 C176.02350169 330.4270606 174.61940873 332.24741042 172.46484375 334.61328125 C171.64242188 335.53625 170.82 336.45921875 169.97265625 337.41015625 C169.08320313 338.3640625 168.19375 339.31796875 167.27734375 340.30078125 C166.37674944 341.3040577 165.47832746 342.30928816 164.58203125 343.31640625 C141.54534792 369.0373353 141.54534792 369.0373353 132.04296875 372.46875 C126.29191359 372.21221953 123.08476172 369.07967023 118.71484375 365.55078125 C109.49900968 357.74908624 109.49900968 357.74908624 98.27734375 354.30078125 C92.4358167 356.03160408 87.11084835 358.81413842 81.63818359 361.46630859 C75.25811294 364.47358557 68.63431344 366.67649555 61.89160156 368.72753906 C61.07530273 368.99147461 60.25900391 369.25541016 59.41796875 369.52734375 C58.32790527 369.86113037 58.32790527 369.86113037 57.21582031 370.20166016 C54.46692996 371.76028791 53.61924918 373.46413948 52.27734375 376.30078125 C51.56244522 379.19998263 51.56244522 379.19998263 51.21484375 382.30078125 C51.05757812 383.43515625 50.9003125 384.56953125 50.73828125 385.73828125 C50.58617187 386.91390625 50.4340625 388.08953125 50.27734375 389.30078125 C49.97526563 391.63548669 49.6631249 393.96891719 49.33984375 396.30078125 C49.20707031 397.33203125 49.07429687 398.36328125 48.9375 399.42578125 C47.99239658 403.54173461 46.245718 406.332407 43.27734375 409.30078125 C34.08520033 412.37928211 23.67107657 411.60472271 14.10742188 411.56152344 C11.28363572 411.55080513 8.46048558 411.56146372 5.63671875 411.57421875 C-17.70273346 411.59788959 -17.70273346 411.59788959 -22.91162109 407.63574219 C-25.21863032 404.66132371 -25.57827157 402.41909263 -26.13671875 398.70703125 C-26.44222656 396.79083984 -26.44222656 396.79083984 -26.75390625 394.8359375 C-26.95281234 393.49103138 -27.15071931 392.14597713 -27.34765625 390.80078125 C-27.74767189 388.16385278 -28.15947269 385.52923218 -28.57421875 382.89453125 C-28.74775879 381.72599609 -28.92129883 380.55746094 -29.10009766 379.35351562 C-29.66000597 376.60798873 -30.21631316 374.64489684 -31.72265625 372.30078125 C-34.05832405 370.93221475 -34.05832405 370.93221475 -36.91015625 369.92578125 C-38.52470703 369.29349609 -38.52470703 369.29349609 -40.171875 368.6484375 C-41.34363281 368.20371094 -42.51539063 367.75898438 -43.72265625 367.30078125 C-46.22529174 366.32768062 -48.72558061 365.35038544 -51.22265625 364.36328125 C-51.85316895 364.11570068 -52.48368164 363.86812012 -53.13330078 363.61303711 C-58.27584455 361.56038554 -63.16607464 359.13348705 -68.0390625 356.5 C-72.27188794 354.60847539 -75.42384834 354.09149467 -80.01953125 354.83203125 C-84.9343707 356.78137686 -88.77407985 359.62775876 -92.97265625 362.80078125 C-94.56106574 363.97804294 -96.1496021 365.15513348 -97.73828125 366.33203125 C-98.43211914 366.85345703 -99.12595703 367.37488281 -99.84082031 367.91210938 C-103.3789023 370.52298254 -105.84718647 372.0514328 -110.37158203 371.93115234 C-119.45904372 369.49461796 -127.88194636 358.49277586 -134.34765625 351.98828125 C-135.26192383 351.07199951 -136.17619141 350.15571777 -137.11816406 349.21166992 C-153.93651453 332.1413761 -153.93651453 332.1413761 -155.14453125 324.703125 C-154.52992582 319.74644602 -151.94503873 316.77230984 -148.97265625 312.86328125 C-141.35513396 303.47257025 -141.35513396 303.47257025 -137.72265625 292.30078125 C-138.24020287 290.06353385 -138.24020287 290.06353385 -139.28515625 287.86328125 C-139.66027344 286.98929687 -140.03539062 286.1153125 -140.421875 285.21484375 C-140.85113281 284.25320313 -141.28039062 283.2915625 -141.72265625 282.30078125 C-145.41428447 273.92481806 -148.80008378 265.60300585 -151.63037109 256.89819336 C-152.8429986 253.28704125 -153.80592914 250.76515368 -156.72265625 248.30078125 C-163.86319262 245.09433659 -171.15688363 244.06665205 -178.85351562 242.92773438 C-184.12784199 242.0637426 -187.95156089 241.40484807 -191.72265625 237.30078125 C-195.53704857 227.57408084 -194.90903881 216.61923751 -194.90795898 206.32739258 C-194.9101416 204.00388143 -194.92834 201.68084921 -194.94726562 199.35742188 C-195.03985609 177.19280243 -195.03985609 177.19280243 -190.54370117 171.58129883 C-187.35599877 169.00437731 -185.28861033 168.34541351 -181.28515625 167.60546875 C-179.44824219 167.24388672 -179.44824219 167.24388672 -177.57421875 166.875 C-175.66769531 166.52888672 -175.66769531 166.52888672 -173.72265625 166.17578125 C-171.20021455 165.70250365 -168.67929227 165.22103734 -166.16015625 164.73046875 C-165.04511719 164.52663574 -163.93007812 164.32280273 -162.78125 164.11279297 C-159.53884686 163.25198256 -157.37060391 162.36148478 -154.72265625 160.30078125 C-153.34580461 157.87866831 -153.34580461 157.87866831 -152.51171875 155.03125 C-152.157146 153.98388672 -151.80257324 152.93652344 -151.43725586 151.85742188 C-151.07768799 150.74560547 -150.71812012 149.63378906 -150.34765625 148.48828125 C-147.86862656 141.14997703 -145.39634307 134.09606873 -141.66015625 127.30078125 C-138.96538016 122.1131795 -136.99107856 118.0960615 -138.72265625 112.30078125 C-142.29892461 104.43299087 -147.49258335 97.77985015 -153 91.1875 C-155.1661852 87.5575434 -155.28114803 85.46580469 -154.72265625 81.30078125 C-153.359375 78.8515625 -153.359375 78.8515625 -151.41015625 76.61328125 C-150.68054688 75.76507813 -149.9509375 74.916875 -149.19921875 74.04296875 C-148.38195312 73.13804688 -147.5646875 72.233125 -146.72265625 71.30078125 C-146.28920898 70.81383789 -145.85576172 70.32689453 -145.40917969 69.82519531 C-117.89596037 38.93001845 -117.89596037 38.93001845 -107.16015625 37.98828125 C-101.58292093 38.91256884 -97.84738847 43.10678789 -93.75390625 46.71484375 C-88.47291535 51.22001897 -81.96059332 56.45157161 -74.72265625 56.30078125 C-67.9579131 55.05565775 -61.90248829 52.06148189 -55.77075195 49.06494141 C-50.1068152 46.34721984 -44.28668039 44.3138607 -38.26928711 42.51831055 C-35.12477312 41.50761379 -33.09065666 40.7933112 -31.08276367 38.10595703 C-29.56298099 34.9714564 -28.99601335 32.30473637 -28.4765625 28.86328125 C-28.27869141 27.63867188 -28.08082031 26.4140625 -27.87695312 25.15234375 C-27.48251153 22.58521894 -27.09188394 20.01750519 -26.70507812 17.44921875 C-26.40633789 15.61230469 -26.40633789 15.61230469 -26.1015625 13.73828125 C-25.93213135 12.62324219 -25.7627002 11.50820312 -25.58813477 10.359375 C-24.52708418 6.60963122 -23.67395647 4.8845525 -20.72265625 2.30078125 C-14.07997871 -0.03417251 -6.96346727 -0.00685116 0 0 Z M-70.72265625 121.30078125 C-71.60953125 122.14640625 -72.49640625 122.99203125 -73.41015625 123.86328125 C-74.17328125 124.66765625 -74.93640625 125.47203125 -75.72265625 126.30078125 C-76.25246094 126.85894531 -76.78226563 127.41710937 -77.328125 127.9921875 C-84.33689869 135.65078127 -89.39098482 144.38312683 -94.16015625 153.55078125 C-94.51456787 154.21207031 -94.86897949 154.87335938 -95.23413086 155.5546875 C-98.24856858 161.52227261 -98.03083272 166.67184744 -97.22265625 173.23828125 C-97.12984375 174.01042969 -97.03703125 174.78257812 -96.94140625 175.578125 C-96.86921875 176.14660156 -96.79703125 176.71507812 -96.72265625 177.30078125 C-97.67140625 177.85765625 -98.62015625 178.41453125 -99.59765625 178.98828125 C-103.98697914 182.23638019 -104.45176888 184.51810331 -105.25390625 189.796875 C-106.54528241 200.5718332 -108.41790006 217.3280834 -103.72265625 227.30078125 C-101.30276041 229.80463266 -98.76557275 231.6236389 -95.72265625 233.30078125 C-96.50614745 239.82987462 -96.50614745 239.82987462 -97.97265625 243.01953125 C-99.04645321 247.71739295 -97.41560277 250.47146352 -95.34765625 254.67578125 C-95.00476563 255.41183594 -94.661875 256.14789063 -94.30859375 256.90625 C-93.46403225 258.7126732 -92.59565961 260.50793044 -91.72265625 262.30078125 C-87.35702084 257.55507876 -84.98393178 251.95435686 -82.28515625 246.17578125 C-81.21519911 243.91519635 -80.14487397 241.65478561 -79.07421875 239.39453125 C-78.52282227 238.22535156 -77.97142578 237.05617187 -77.40332031 235.8515625 C-74.68639718 230.11145063 -71.92161584 224.39456324 -69.16015625 218.67578125 C-65.50961836 211.10302487 -61.87172551 203.5244881 -58.25341797 195.9362793 C-53.83690693 186.67449209 -49.35262955 177.45783956 -44.72265625 168.30078125 C-35.48265625 167.97078125 -26.24265625 167.64078125 -16.72265625 167.30078125 C-21.77675213 177.9143826 -26.84401215 188.5195368 -32.00390625 199.08203125 C-32.5624807 200.22565376 -32.5624807 200.22565376 -33.13233948 201.39237976 C-33.50962692 202.16483536 -33.88691437 202.93729095 -34.27563477 203.7331543 C-41.58603829 218.70152441 -48.75988915 233.71554989 -55.734375 248.84375 C-58.76628554 255.41471616 -61.85615442 261.95705752 -64.97265625 268.48828125 C-65.43921631 269.46974121 -65.90577637 270.45120117 -66.38647461 271.46240234 C-66.8119458 272.35137207 -67.23741699 273.2403418 -67.67578125 274.15625 C-68.04864258 274.93637451 -68.42150391 275.71649902 -68.80566406 276.52026367 C-69.72265625 278.30078125 -69.72265625 278.30078125 -70.72265625 279.30078125 C-73.37728746 279.75537983 -76.04454763 280.00321363 -78.72265625 280.30078125 C-64.17684185 302.27293971 -38.52536013 314.97144342 -13.5 320.390625 C18.15691831 326.66869835 50.06020855 320.51559879 77.12792969 303.11083984 C80.66912972 300.69319043 83.99056984 298.050341 87.27734375 295.30078125 C88.13457031 294.60597656 88.99179687 293.91117188 89.875 293.1953125 C103.08289267 281.98799708 114.25462396 265.56994639 120.27734375 249.30078125 C120.51952707 245.51748499 119.58635697 242.05614689 118.15234375 238.55078125 C117.10138619 235.84831896 117.22653391 234.96861401 118.27734375 232.30078125 C120.2375778 230.64894609 122.30838052 229.34338446 124.46484375 227.9609375 C126.85279003 225.77370222 126.83378202 224.49731553 127.27734375 221.30078125 C127.47303624 216.60481938 127.46315333 211.90846317 127.46264648 207.20898438 C127.46483015 204.93991252 127.48300389 202.67132958 127.50195312 200.40234375 C127.50488826 198.94401206 127.50687225 197.48567809 127.5078125 196.02734375 C127.51192139 194.71330566 127.51603027 193.39926758 127.52026367 192.04541016 C127.11122635 185.23292329 127.11122635 185.23292329 123.55078125 179.7421875 C122.92429687 179.45214844 122.2978125 179.16210938 121.65234375 178.86328125 C120.53859375 178.34765625 119.42484375 177.83203125 118.27734375 177.30078125 C118.09371345 173.62817517 118.33341682 171.13536569 119.52734375 167.61328125 C121.72085998 159.20480237 115.63232261 150.5473165 111.54443359 143.49804688 C107.99941147 137.62132386 103.88736692 132.38644173 99.27734375 127.30078125 C98.83938477 126.81367676 98.40142578 126.32657227 97.95019531 125.82470703 C78.383347 104.3315529 50.17992818 91.45017241 21.27734375 89.30078125 C-13.55693855 87.69276338 -45.19514601 96.81328069 -70.72265625 121.30078125 Z "
     fill="#060606"
     transform="translate(199.72265625,-0.30078125)"
     id="path1" />
  <path
     d="M0 0 C14.66692547 -0.07425424 29.33303948 -0.06517184 44 0 C45.8189679 0.00776459 45.8189679 0.00776459 47.67468262 0.01568604 C55.30064892 0.05218634 62.92580595 0.11594396 70.55130005 0.20852661 C73.03860096 0.23595318 75.52598409 0.25679433 78.01339722 0.27072144 C103.4624948 0.42510893 124.40578406 4.42996379 143 23 C161.05405075 42.09609663 165.86737734 61.89103336 165.37109375 87.62890625 C164.70781567 106.36356162 155.98445095 121.82530068 143 135 C142.46117187 135.61101562 141.92234375 136.22203125 141.3671875 136.8515625 C128.0492846 151.50794811 108.22833666 158.07531132 88.9543972 159.10979271 C83.97119548 159.26740068 78.98876547 159.23090972 74.00390625 159.1953125 C72.43350914 159.19156965 70.86310966 159.18872872 69.29270935 159.18673706 C65.21411375 159.17920054 61.13566685 159.15964146 57.05712891 159.1373291 C52.87339284 159.116652 48.6896321 159.10768922 44.50585938 159.09765625 C36.3371723 159.07638317 28.16860479 159.04237242 20 159 C20.64045026 154.8057305 21.4937706 151.50827953 23.3984375 147.70703125 C23.87796875 146.74732422 24.3575 145.78761719 24.8515625 144.79882812 C25.35429687 143.81333984 25.85703125 142.82785156 26.375 141.8125 C26.87 140.81541016 27.365 139.81832031 27.875 138.79101562 C32.22517784 130.16626463 32.22517784 130.16626463 35 128 C37.60253906 127.59022522 37.60253906 127.59022522 40.765625 127.53930664 C41.95115967 127.5124025 43.13669434 127.48549835 44.3581543 127.45777893 C45.64246338 127.44206345 46.92677246 127.42634796 48.25 127.41015625 C49.587036 127.38098954 50.92403317 127.34999042 52.26098633 127.31724548 C57.22104549 127.19923847 62.18150459 127.10931566 67.14227295 127.0269165 C71.32540722 126.95729546 75.50767542 126.87262371 79.69006348 126.76705742 C81.6365298 126.72378927 83.58343973 126.70218667 85.53027344 126.6811676 C98.33335747 126.36333752 110.53492335 122.44898812 119.8125 113.19140625 C130.93608139 99.25796185 132.15163898 85.15847937 131 68 C130.22328249 63.89893153 129.01026111 60.63969636 127 57 C126.56429687 56.13503906 126.12859375 55.27007812 125.6796875 54.37890625 C119.57196049 43.14803118 110.32615689 37.3780083 98.27864075 33.43688965 C95.05466077 32.81874768 91.85861741 32.85025436 88.58862305 32.84570312 C87.05457884 32.83493585 85.52053653 32.82389616 83.98649597 32.81262207 C83.17616598 32.80811539 82.36583599 32.8036087 81.53095055 32.79896545 C77.22672476 32.76869777 72.92300958 32.70241797 68.61914062 32.640625 C63.14809513 32.56221172 57.67792107 32.49511924 52.20629883 32.47851562 C47.77857108 32.46412132 43.35327627 32.40624873 38.92640114 32.31932068 C37.24374253 32.29409707 35.5607693 32.28459066 33.87793541 32.29139709 C20.75039161 32.3319078 20.75039161 32.3319078 16.49526978 29.09410095 C14.68960361 26.81167075 13.32564746 24.58514129 12 22 C11.33871094 21.06744385 10.67742187 20.1348877 9.99609375 19.17407227 C8.32234743 16.64221634 6.65561163 14.10625864 5 11.5625 C4.40316406 10.66595703 3.80632812 9.76941406 3.19140625 8.84570312 C2.63324219 7.99041016 2.07507813 7.13511719 1.5 6.25390625 C0.9946875 5.48377197 0.489375 4.7136377 -0.03125 3.92016602 C-0.3509375 3.28651123 -0.670625 2.65285645 -1 2 C-0.67 1.34 -0.34 0.68 0 0 Z "
     fill="#0E0E0E"
     id="path2"
     transform="translate(131,121)" />
  <path
     d="m 95,155 c 0.99,2.31 1.98,4.62 3,7 0.66,-0.33 1.32,-0.66 2,-1 2.66214,12.02716 2.66214,12.02716 2,16 -2.375,2.375 -2.375,2.375 -5,4 -0.66,0 -1.32,0 -2,0 -2.71016,12.82487 -5.74197,33.80406 0,46 2.419896,2.50385 4.957083,4.32286 8,6 -0.54929,4.57744 -1.42484,8.66831 -3,13 -0.495,1.485 -0.495,1.485 -1,3 -0.33,-0.33 -0.66,-0.66 -1,-1 -0.99,2.31 -1.98,4.62 -3,7 -3.546653,-1.31941 -6.630887,-2.88887 -9.824219,-4.91406 -0.933281,-0.58822 -1.866562,-1.17643 -2.828125,-1.78247 -1.001601,-0.6364 -2.003203,-1.27279 -3.035156,-1.92847 -2.159617,-1.36153 -4.319793,-2.72218 -6.480469,-4.08203 -0.557549,-0.35139 -1.115099,-0.70277 -1.689544,-1.06481 -5.082519,-3.19987 -10.192386,-6.35355 -15.312165,-9.49354 -2.211176,-1.35919 -4.417783,-2.72584 -6.619629,-4.1001 -4.731477,-2.9455 -9.436926,-5.80941 -14.406006,-8.33765 C 24.691473,214.01944 24.691473,214.01944 22.722656,208.26953 22.248327,204.12494 22.391999,200.92195 24,197 c 2.751877,-2.44387 5.80454,-4.19454 9,-6 1.447814,-0.88084 2.894455,-1.76362 4.339844,-2.64844 1.531514,-0.9106 3.064116,-1.81937 4.597656,-2.72656 10.331776,-6.15493 20.573527,-12.45172 30.808594,-18.76563 1.52343,-0.93682 1.52343,-0.93682 3.077636,-1.89257 2.257759,-1.39804 4.505519,-2.80701 6.747071,-4.23047 0.884143,-0.5566 0.884143,-0.5566 1.786148,-1.12445 1.652073,-1.04044 3.300146,-2.08721 4.947983,-3.13434 C 92,155 92,155 95,155 Z"
     fill="#e11b27"
     id="path3" />
  <path
     d="m 327,154 c 9.79771,5.39909 19.27535,11.25336 28.74121,17.21143 5.78448,3.63495 11.59188,7.21952 17.46436,10.71069 2.47192,1.47219 4.93004,2.96563 7.38818,4.46069 2.72638,1.64925 5.46475,3.18108 8.3125,4.60938 3.30534,1.7994 5.55227,3.24281 8.09375,6.00781 1.4267,5.28163 1.34283,9.76448 0,15 -3.6289,4.07048 -8.02425,6.26711 -12.8125,8.6875 -1.29766,0.71047 -2.592,1.42701 -3.88306,2.14941 -2.57068,1.43251 -5.15293,2.83876 -7.74878,4.2251 -4.64494,2.50175 -9.07151,5.31394 -13.49316,8.18799 -1.47676,0.94054 -2.95463,1.87934 -4.43359,2.81641 -1.10578,0.70213 -1.10578,0.70213 -2.23389,1.41845 -4.61863,2.92184 -9.25477,5.8153 -13.89502,8.70264 -0.90355,0.56558 -1.8071,1.13115 -2.73804,1.71387 -0.83926,0.5211 -1.67852,1.0422 -2.54321,1.5791 -0.74314,0.46301 -1.48629,0.92603 -2.25195,1.40307 C 329,254 329,254 326,255 c -0.495,-2.475 -0.495,-2.475 -1,-5 -1.98,0.495 -1.98,0.495 -4,1 0.0928,-1.485 0.0928,-1.485 0.1875,-3 0.0309,-3.81198 -1.05479,-6.67039 -2.62891,-10.10547 C 317.84269,235.46648 317.9975,234.32207 319,232 c 1.96023,-1.65184 4.03104,-2.9574 6.1875,-4.33984 2.38837,-2.18763 2.37126,-3.46268 2.8125,-6.66016 0.0923,-2.48566 0.13067,-4.97357 0.13281,-7.46094 9.6e-4,-0.70879 0.002,-1.41758 0.003,-2.14786 6.8e-4,-1.49433 -0.001,-2.98867 -0.005,-4.483 -0.005,-2.26895 -5e-5,-4.53769 0.006,-6.80664 -6.6e-4,-1.45833 -0.002,-2.91666 -0.004,-4.375 -0.001,-1.31404 -0.002,-2.62807 -0.003,-3.98193 C 328.00214,188.06198 327.59158,184.62998 327,181 c -1.14469,-0.43313 -1.14469,-0.43313 -2.3125,-0.875 C 322,179 322,179 319,177 c -0.58594,-4.92192 0.69794,-9.30499 2,-14 0.33661,-1.33251 0.67085,-2.66563 1,-4 0.33,0.66 0.66,1.32 1,2 1.32,-2.31 2.64,-4.62 4,-7 z"
     fill="#e21b28"
     id="path4" />
  <path
     d="M0 0 C1.96066406 -0.03867187 1.96066406 -0.03867187 3.9609375 -0.078125 C10.27629492 0.4874294 13.99729249 4.26801912 18.625 8.25 C19.29595703 7.63511719 19.29595703 7.63511719 19.98046875 7.0078125 C20.88732422 6.19957031 20.88732422 6.19957031 21.8125 5.375 C22.40417969 4.84132813 22.99585938 4.30765625 23.60546875 3.7578125 C28.22957327 0.3053863 32.37170122 -0.04530725 38.0625 -0.0625 C39.33996094 -0.07925781 40.61742187 -0.09601563 41.93359375 -0.11328125 C47.58807086 0.4431911 51.54159719 2.60007769 55.375 6.75 C62.01639244 15.00403643 60.91478321 26.3545293 60.8125 36.4375 C60.8115332 38.26571289 60.8115332 38.26571289 60.81054688 40.13085938 C60.78062094 46.25902562 60.56793637 52.19257674 59.625 58.25 C57.31256208 58.27685412 55.0000373 58.29632841 52.6875 58.3125 C50.75583984 58.32990234 50.75583984 58.32990234 48.78515625 58.34765625 C45.625 58.25 45.625 58.25 44.625 57.25 C44.41794907 54.47700333 44.27004835 51.7226354 44.16015625 48.9453125 C44.08162724 47.23045742 44.00284322 45.515614 43.92382812 43.80078125 C43.80414807 41.08623112 43.68736065 38.37161979 43.57543945 35.65673828 C43.46588924 33.04416761 43.34498124 30.43231177 43.22265625 27.8203125 C43.19236832 27.0077298 43.16208038 26.19514709 43.13087463 25.35794067 C42.94561376 21.53104804 42.79354617 19.50281925 40.625 16.25 C35.39071449 14.91577036 31.65944047 15.37442414 26.625 17.25 C22.85089329 21.02410671 23.37591907 25.94713742 23.125 31.04296875 C23.04168796 32.57487095 22.95835398 34.10677196 22.875 35.63867188 C22.74868099 38.04835497 22.62393983 40.45811332 22.5 42.86791992 C22.37885664 45.19732697 22.25215541 47.52638339 22.125 49.85546875 C22.08955078 50.58146774 22.05410156 51.30746674 22.01757812 52.0554657 C21.73798869 57.13701131 21.73798869 57.13701131 20.625 58.25 C18.46019203 58.3489294 16.29206215 58.379711 14.125 58.375 C12.9390625 58.37757813 11.753125 58.38015625 10.53125 58.3828125 C7.625 58.25 7.625 58.25 6.625 57.25 C6.41798666 54.56149277 6.27007701 51.89218313 6.16015625 49.19921875 C6.0816117 47.53449427 6.00282809 45.86978106 5.92382812 44.20507812 C5.80427994 41.57182684 5.68754302 38.93851073 5.57543945 36.30493164 C5.46566938 33.76926674 5.34482659 31.23431219 5.22265625 28.69921875 C5.19236832 27.91367111 5.16208038 27.12812347 5.13087463 26.31877136 C4.89393577 20.97282328 4.89393577 20.97282328 2.625 16.25 C0.16490037 15.01995019 -1.50672806 15.11685973 -4.25 15.125 C-5.11367187 15.12242187 -5.97734375 15.11984375 -6.8671875 15.1171875 C-9.18165971 15.23976079 -11.15789116 15.60033555 -13.375 16.25 C-14.50492492 20.37303228 -14.68312904 24.44739642 -14.875 28.69921875 C-14.95831686 30.36783936 -15.0416507 32.03645913 -15.125 33.70507812 C-15.25130396 36.33205248 -15.37601922 38.95909665 -15.5 41.58618164 C-15.62113333 44.12406693 -15.74784537 46.66162917 -15.875 49.19921875 C-15.91044922 49.99083908 -15.94589844 50.78245941 -15.98242188 51.59806824 C-16.26202755 57.13702755 -16.26202755 57.13702755 -17.375 58.25 C-19.70660055 58.34909302 -22.04129942 58.37970504 -24.375 58.375 C-25.65375 58.37757813 -26.9325 58.38015625 -28.25 58.3828125 C-31.375 58.25 -31.375 58.25 -32.375 57.25 C-32.46865006 55.5007128 -32.49244438 53.74763746 -32.48852539 51.99584961 C-32.48844986 50.87476303 -32.48837433 49.75367645 -32.48829651 48.59861755 C-32.48313522 47.3788472 -32.47797394 46.15907684 -32.47265625 44.90234375 C-32.4712413 43.66078018 -32.46982635 42.41921661 -32.46836853 41.14002991 C-32.46370591 37.83394509 -32.45471497 34.52792854 -32.44366455 31.22186279 C-32.43344827 27.8503885 -32.42887045 24.47890717 -32.42382812 21.10742188 C-32.41277395 14.48825982 -32.3954966 7.86913929 -32.375 1.25 C-27.425 1.25 -22.475 1.25 -17.375 1.25 C-17.045 2.57 -16.715 3.89 -16.375 5.25 C-14.9828125 4.2909375 -14.9828125 4.2909375 -13.5625 3.3125 C-8.85682028 0.26764842 -5.53125189 0.0652014 0 0 Z "
     fill="#1D1D1D"
     transform="translate(174.375,461.75)"
     id="path5" />
  <path
     d="M0 0 C0.79137863 -0.00570007 1.58275726 -0.01140015 2.39811707 -0.01727295 C4.08367571 -0.0267472 5.76925309 -0.0332665 7.45483398 -0.03710938 C9.9943271 -0.04669146 12.53296708 -0.07763687 15.07226562 -0.109375 C30.67159018 -0.21313607 43.02755803 1.73977267 54.88671875 12.65234375 C61.67958599 20.0452476 63.43753354 28.14214383 63.54296875 37.828125 C63.58647461 39.12556641 63.58647461 39.12556641 63.63085938 40.44921875 C63.72355613 49.96133235 60.37570933 56.62284701 53.9453125 63.48828125 C45.45137087 71.98222288 34.46210104 75.40581996 22.59521484 75.45536804 C21.83547363 75.44818253 21.07573242 75.44099701 20.29296875 75.43359375 C19.48682129 75.43313553 18.68067383 75.43267731 17.85009766 75.4322052 C16.16616318 75.42921073 14.48223077 75.42141001 12.79833984 75.40893555 C10.20921158 75.39047342 7.62043777 75.38842766 5.03125 75.38867188 C3.3893198 75.38376328 1.74739202 75.37793786 0.10546875 75.37109375 C-1.05843384 75.36942451 -1.05843384 75.36942451 -2.24584961 75.36772156 C-7.65341329 75.31924296 -7.65341329 75.31924296 -8.76953125 74.203125 C-8.86920711 71.93863121 -8.89752956 69.67098289 -8.89892578 67.40429688 C-8.9006781 66.69374649 -8.90243042 65.98319611 -8.90423584 65.25111389 C-8.90865402 62.89134309 -8.9057165 60.53164663 -8.90234375 58.171875 C-8.9030168 56.53902166 -8.90398683 54.90616842 -8.90524292 53.27331543 C-8.90671985 49.84675139 -8.90456551 46.42021337 -8.89990234 42.99365234 C-8.89420505 38.59157999 -8.89748409 34.18956859 -8.90347481 29.78749847 C-8.90708056 26.41444435 -8.90594177 23.04140478 -8.90334702 19.66835022 C-8.90267779 18.04476413 -8.90350603 16.42117673 -8.90582657 14.79759216 C-8.90835334 12.5323433 -8.90451219 10.2671945 -8.89892578 8.00195312 C-8.89813019 6.71035278 -8.89733459 5.41875244 -8.89651489 4.0880127 C-8.64945472 -1.52484295 -4.57798662 0.02538197 0 0 Z M7.23046875 14.203125 C7.11259159 29.57430607 7.26069152 44.85986379 8.23046875 60.203125 C26.3932922 61.34128781 26.3932922 61.34128781 42.23046875 53.703125 C46.86436463 47.91075515 47.65878493 41.83981763 46.984375 34.5390625 C45.86867727 28.00285105 43.73824584 23.57891382 38.85546875 18.953125 C29.78603634 12.90683673 17.70853505 14.13988418 7.23046875 14.203125 Z "
     fill="#1A1A1A"
     transform="translate(8.76953125,444.796875)"
     id="path6" />
  <path
     d="M0 0 C1.16781006 0.00523682 2.33562012 0.01047363 3.53881836 0.01586914 C4.79887695 0.0190918 6.05893555 0.02231445 7.35717773 0.02563477 C8.6976732 0.03399136 10.03816799 0.04245632 11.37866211 0.05102539 C12.72306153 0.05603879 14.06746271 0.06060197 15.41186523 0.06469727 C18.71334151 0.07653051 22.01473014 0.09301568 25.31616211 0.11352539 C24.69105613 4.42243517 23.15542278 7.75435366 21.17553711 11.61743164 C20.85758682 12.24357361 20.53963654 12.86971558 20.21205139 13.51483154 C19.52666876 14.86440934 18.83884585 16.21275008 18.14883423 17.55996704 C16.29171556 21.18966378 14.45697844 24.83058623 12.62475586 28.47290039 C12.2534404 29.21095413 11.88212494 29.94900787 11.4995575 30.70942688 C8.23776336 37.21919685 5.15471639 43.80347214 2.12866211 50.42602539 C-3.65951805 63.06145149 -9.71192816 75.56204167 -15.80883789 88.05102539 C-16.27671722 89.01142731 -16.74459656 89.97182922 -17.22665405 90.96133423 C-18.56644441 93.71001275 -19.90963098 96.45700124 -21.25415039 99.20336914 C-21.65673569 100.02922516 -22.05932098 100.85508118 -22.47410583 101.70596313 C-26.55064533 110.0066749 -26.55064533 110.0066749 -28.68383789 113.11352539 C-30.94555664 113.82055664 -30.94555664 113.82055664 -33.37133789 113.92602539 C-34.58370117 113.99756836 -34.58370117 113.99756836 -35.82055664 114.07055664 C-36.43543945 114.08473633 -37.05032227 114.09891602 -37.68383789 114.11352539 C-38.2987207 113.22149414 -38.91360352 112.32946289 -39.54711914 111.41040039 C-40.3634834 110.22807973 -41.17989199 109.04578968 -41.99633789 107.86352539 C-42.40045898 107.27700195 -42.80458008 106.69047852 -43.22094727 106.08618164 C-45.73710434 102.43917078 -45.73710434 102.43917078 -48.60180664 99.06665039 C-49.68383789 97.11352539 -49.68383789 97.11352539 -48.97485352 94.44433594 C-47.5618062 90.79868455 -45.89536771 87.33958311 -44.10961914 83.86743164 C-43.38697405 82.44221984 -42.66516233 81.01658525 -41.9440918 79.59057617 C-41.57108948 78.85429993 -41.19808716 78.11802368 -40.81378174 77.35943604 C-38.96117937 73.67714741 -37.15526239 69.97241755 -35.35180664 66.26586914 C-34.98856796 65.51975876 -34.62532928 64.77364838 -34.25108337 64.00492859 C-33.12363561 61.68738075 -31.99741512 59.36923943 -30.87133789 57.05102539 C-30.48054047 56.24736542 -30.08974304 55.44370544 -29.68710327 54.61569214 C-24.92302127 44.81844022 -20.18250296 35.01082265 -15.49633789 25.17602539 C-3.57105675 0.15105443 -3.57105675 0.15105443 0 0 Z "
     fill="#E72530"
     transform="translate(157.683837890625,166.886474609375)"
     id="path7" />
  <path
     d="M0 0 C6.12334806 3.91175508 13.02179741 9.82833231 15.1328125 17 C16.30967985 25.21303175 17.48378873 35.58781233 12.82421875 42.86328125 C12.38722656 43.42402344 11.95023437 43.98476563 11.5 44.5625 C10.99082031 45.25730469 10.48164063 45.95210938 9.95703125 46.66796875 C5.2594731 52.56947773 -0.08070529 56.06196849 -7.5 57.5625 C-15.16052573 58.29839302 -20.76714824 57.24707162 -27.5 53.5625 C-28.16 53.2325 -28.82 52.9025 -29.5 52.5625 C-29.52505615 53.25400146 -29.5501123 53.94550293 -29.57592773 54.65795898 C-29.69152161 57.77217866 -29.81441242 60.88606789 -29.9375 64 C-29.97681641 65.08861328 -30.01613281 66.17722656 -30.05664062 67.29882812 C-30.09853516 68.33330078 -30.14042969 69.36777344 -30.18359375 70.43359375 C-30.23858032 71.87109985 -30.23858032 71.87109985 -30.29467773 73.33764648 C-30.5 75.5625 -30.5 75.5625 -31.5 76.5625 C-36.12 76.5625 -40.74 76.5625 -45.5 76.5625 C-45.5 51.1525 -45.5 25.7425 -45.5 -0.4375 C-40.88 -0.4375 -36.26 -0.4375 -31.5 -0.4375 C-31.17 0.8825 -30.84 2.2025 -30.5 3.5625 C-29.571875 2.923125 -28.64375 2.28375 -27.6875 1.625 C-20.73285048 -2.87506734 -7.77253351 -3.48260157 0 0 Z M-26.9375 15.4375 C-31.20546214 21.24192851 -31.08572498 26.51490593 -30.5 33.5625 C-29.24018068 37.71249305 -27.77821429 39.62683154 -24.1875 41.875 C-19.20953331 44.34839472 -15.35447069 45.00404096 -9.9375 43.5625 C-5.11830667 41.77460365 -2.64123689 39.20024627 -0.5 34.5625 C0.96554559 29.18883284 0.56219009 24.67134278 -1.5 19.5625 C-4.02175107 15.43599825 -6.13353695 13.33545142 -10.75 12.0625 C-16.63607383 11.09950295 -22.14836569 11.75355053 -26.9375 15.4375 Z "
     fill="#151515"
     transform="translate(292.5,463.4375)"
     id="path8" />
  <path
     d="M0 0 C5.72870892 4.40370141 8.73947198 9.35449049 10.72265625 16.32421875 C11.09886525 19.35468496 11.09865058 22.33243142 11.05078125 25.3828125 C11.04890808 26.21257095 11.04703491 27.04232941 11.04510498 27.89723206 C11.03843041 29.6342476 11.02460872 31.3712493 11.00390625 33.1081543 C10.97245717 35.77862364 10.96290024 38.44850354 10.95703125 41.11914062 C10.94787182 42.81120519 10.93749946 44.50326372 10.92578125 46.1953125 C10.91940643 47.39673134 10.91940643 47.39673134 10.91290283 48.62242126 C10.83989354 54.20698146 10.83989354 54.20698146 9.72265625 55.32421875 C7.53626172 55.39680821 5.34765236 55.40795658 3.16015625 55.38671875 C1.36384766 55.37318359 1.36384766 55.37318359 -0.46875 55.359375 C-1.39558594 55.34777344 -2.32242188 55.33617187 -3.27734375 55.32421875 C-3.93734375 53.67421875 -4.59734375 52.02421875 -5.27734375 50.32421875 C-6.32921875 51.25234375 -6.32921875 51.25234375 -7.40234375 52.19921875 C-13.55773197 56.74885352 -19.84968537 56.99650316 -27.27734375 56.32421875 C-33.31922579 54.61235217 -37.39050228 51.15532114 -41.27734375 46.32421875 C-43.06957592 40.94752225 -43.22693034 34.75094004 -41.15234375 29.44921875 C-35.89616048 23.49221105 -32.03997287 21.47326244 -24.27734375 20.32421875 C-20.91579238 20.11534756 -17.58103015 20.1313205 -14.21484375 20.19921875 C-13.34923828 20.20824219 -12.48363281 20.21726562 -11.59179688 20.2265625 C-9.48685596 20.24982152 -7.38206033 20.28567867 -5.27734375 20.32421875 C-6.87273519 15.26445234 -6.87273519 15.26445234 -10.6328125 11.90234375 C-16.61899235 10.59369587 -22.74918867 10.74010813 -28.65234375 12.38671875 C-32.15163964 13.29170907 -33.95364756 13.69279953 -37.27734375 12.32421875 C-39.70097419 9.20812247 -39.45126526 6.1504919 -39.27734375 2.32421875 C-37.8625624 1.67426578 -36.44542888 1.02943153 -35.02734375 0.38671875 C-34.2384375 0.02707031 -33.44953125 -0.33257812 -32.63671875 -0.703125 C-23.55480688 -4.4471582 -8.63474432 -4.89244956 0 0 Z M-18.58984375 30.63671875 C-19.82154297 30.72373047 -19.82154297 30.72373047 -21.078125 30.8125 C-23.68948965 31.42011771 -24.6242135 32.25010502 -26.27734375 34.32421875 C-27.34980692 36.88163093 -27.43810582 37.8913978 -26.46484375 40.51171875 C-25.39612388 42.47444068 -25.39612388 42.47444068 -23.27734375 43.32421875 C-18.40937105 43.73184287 -13.83009098 43.89461569 -9.21484375 42.19921875 C-6.68861195 39.7544783 -6.04221109 37.73135508 -5.27734375 34.32421875 C-5.27734375 33.00421875 -5.27734375 31.68421875 -5.27734375 30.32421875 C-9.73437738 30.24168109 -14.14271028 30.31020381 -18.58984375 30.63671875 Z "
     fill="#1C1C1C"
     transform="translate(120.27734375,464.67578125)"
     id="path9" />
  <path
     d="M0 0 C8.11569146 6.96162524 12.4801072 13.57412612 13.453125 24.3359375 C13.5924379 26.37454956 13.6912796 28.4176052 13.703125 30.4609375 C11.54855531 32.61550719 6.6319623 31.72120376 3.63671875 31.77734375 C2.72809586 31.79812485 1.81947296 31.81890594 0.88331604 31.84031677 C-2.03083446 31.90591422 -4.94507804 31.9647443 -7.859375 32.0234375 C-9.83008791 32.06661304 -11.80079126 32.11022701 -13.77148438 32.15429688 C-18.61318488 32.26160593 -23.45497937 32.36284425 -28.296875 32.4609375 C-27.70261719 33.57597656 -27.10835938 34.69101562 -26.49609375 35.83984375 C-26.16182373 36.46705322 -25.82755371 37.0942627 -25.4831543 37.74047852 C-23.35454354 40.82759932 -20.81240438 41.4811998 -17.296875 42.4609375 C-11.13567671 43.36202683 -6.77765502 42.18004801 -1.33984375 39.23828125 C1.181618 38.27887229 2.23671755 38.41183167 4.703125 39.4609375 C6.63584248 41.29701911 8.07364434 43.33355997 9.703125 45.4609375 C7.95087065 49.92122131 5.11922471 52.25288765 0.8671875 54.37890625 C-8.52529682 58.09749205 -19.47867585 57.8008985 -28.7578125 53.9140625 C-35.31575124 50.16090371 -40.98909881 44.30252575 -43.70703125 37.17578125 C-45.49660162 28.93901695 -45.80037563 18.97262463 -41.68359375 11.41796875 C-32.87882705 -1.00791326 -14.39369009 -9.1419383 0 0 Z M-27.296875 15.4609375 C-28.286875 18.9259375 -28.286875 18.9259375 -29.296875 22.4609375 C-20.056875 22.1309375 -10.816875 21.8009375 -1.296875 21.4609375 C-4.1835291 14.43209271 -4.1835291 14.43209271 -9.296875 10.4609375 C-16.68227033 9.22660959 -22.47016725 9.49106213 -27.296875 15.4609375 Z "
     fill="#1A1A1A"
     transform="translate(357.296875,464.5390625)"
     id="path10" />
  <path
     d="M0 0 C4.61134775 2.36827136 8.2138702 6.86267019 10.6015625 11.38671875 C12.30462684 17.1415919 12.88820808 22.24650589 12.83203125 28.2265625 C12.83157303 29.03412491 12.83111481 29.84168732 12.8306427 30.67372131 C12.82764414 32.36363208 12.81983066 34.05354069 12.80737305 35.7434082 C12.78894055 38.3414068 12.7868649 40.93905174 12.78710938 43.53710938 C12.78219986 45.18359686 12.77637403 46.83008192 12.76953125 48.4765625 C12.76841843 49.25563461 12.7673056 50.03470673 12.76615906 50.83738708 C12.71767034 56.27061091 12.71767034 56.27061091 11.6015625 57.38671875 C9.26996195 57.48581177 6.93526308 57.51642379 4.6015625 57.51171875 C3.3228125 57.51429688 2.0440625 57.516875 0.7265625 57.51953125 C-2.3984375 57.38671875 -2.3984375 57.38671875 -3.3984375 56.38671875 C-3.60545084 53.69821152 -3.75336049 51.02890188 -3.86328125 48.3359375 C-3.9418258 46.67121302 -4.02060941 45.00649981 -4.09960938 43.34179688 C-4.21915756 40.70854559 -4.33589448 38.07522948 -4.44799805 35.44165039 C-4.55776812 32.90598549 -4.67861091 30.37103094 -4.80078125 27.8359375 C-4.83106918 27.05038986 -4.86135712 26.26484222 -4.89256287 25.45549011 C-5.07994212 20.07914485 -5.07994212 20.07914485 -7.3984375 15.38671875 C-12.95627311 13.18274946 -16.22756021 13.14032813 -21.734375 15.3671875 C-24.2354546 16.89953909 -25.23940295 18.79586853 -25.98828125 21.578125 C-26.51016999 25.15182025 -26.762422 28.72124371 -26.9609375 32.32421875 C-27.00412109 33.06551025 -27.04730469 33.80680176 -27.09179688 34.57055664 C-27.41823288 40.63229188 -27.44744779 46.65622127 -27.3359375 52.7265625 C-27.3984375 55.38671875 -27.3984375 55.38671875 -28.3984375 57.38671875 C-30.71087542 57.41357287 -33.0234002 57.43304716 -35.3359375 57.44921875 C-36.62371094 57.46082031 -37.91148437 57.47242188 -39.23828125 57.484375 C-42.3984375 57.38671875 -42.3984375 57.38671875 -43.3984375 56.38671875 C-43.49208756 54.63743155 -43.51588188 52.88435621 -43.51196289 51.13256836 C-43.51188736 50.01148178 -43.51181183 48.8903952 -43.51173401 47.7353363 C-43.50657272 46.51556595 -43.50141144 45.29579559 -43.49609375 44.0390625 C-43.4946788 42.79749893 -43.49326385 41.55593536 -43.49180603 40.27674866 C-43.48714341 36.97066384 -43.47815247 33.66464729 -43.46710205 30.35858154 C-43.45688577 26.98710725 -43.45230795 23.61562592 -43.44726562 20.24414062 C-43.43621145 13.62497857 -43.4189341 7.00585804 -43.3984375 0.38671875 C-38.4484375 0.38671875 -33.4984375 0.38671875 -28.3984375 0.38671875 C-28.0684375 2.03671875 -27.7384375 3.68671875 -27.3984375 5.38671875 C-26.4703125 4.58234375 -25.5421875 3.77796875 -24.5859375 2.94921875 C-18.52363964 -2.30477272 -7.53343781 -1.9263025 0 0 Z "
     fill="#1D1D1D"
     transform="translate(422.3984375,462.61328125)"
     id="path11" />
  <path
     d="M0 0 C-0.16242188 1.2065625 -0.32484375 2.413125 -0.4921875 3.65625 C-1.18718373 9.93331842 -1.14582048 16.19139383 -1.125 22.5 C-1.12886719 23.67175781 -1.13273437 24.84351563 -1.13671875 26.05078125 C-1.12953381 32.45256315 -0.85419594 38.65454446 0 45 C-4.68761685 43.33043783 -8.80289771 40.90535789 -13.0625 38.375 C-13.80967285 37.93422119 -14.5568457 37.49344238 -15.32666016 37.03930664 C-20.91642296 33.71383494 -26.33094051 30.19849939 -31.6796875 26.49609375 C-34.00642738 24.85990114 -34.00642738 24.85990114 -37 24 C-35.79697937 20.39093811 -34.94204478 20.06208299 -31.765625 18.14453125 C-30.88688721 17.60787842 -30.00814941 17.07122559 -29.1027832 16.51831055 C-28.16136475 15.95539307 -27.21994629 15.39247559 -26.25 14.8125 C-24.33202875 13.64844162 -22.41406 12.48437912 -20.49609375 11.3203125 C-19.55749512 10.75473633 -18.61889648 10.18916016 -17.65185547 9.60644531 C-15.35030947 8.21221104 -13.06334885 6.7991301 -10.78515625 5.3671875 C-9.88845215 4.80487427 -9.88845215 4.80487427 -8.97363281 4.23120117 C-7.41567803 3.25232747 -5.85821222 2.27267565 -4.30078125 1.29296875 C-2 0 -2 0 0 0 Z "
     fill="#040202"
     transform="translate(95,182)"
     id="path12" />
  <path
     d="M0 0 C8.43964961 4.4633277 16.58229328 9.34106142 24.6875 14.375 C25.8898104 15.11875405 27.09228353 15.86224511 28.29492188 16.60546875 C31.19848944 18.40062991 34.09986461 20.1992979 37 22 C33.78876737 24.65684227 30.58074586 26.96189512 26.98046875 29.05859375 C26.04009766 29.60966797 25.09972656 30.16074219 24.13085938 30.72851562 C23.15955078 31.29248047 22.18824219 31.85644531 21.1875 32.4375 C19.26375392 33.56022353 17.34056736 34.68390637 15.41796875 35.80859375 C14.49935059 36.34468262 13.58073242 36.88077148 12.63427734 37.43310547 C9.55873441 39.26246919 6.5456737 41.17693677 3.55200195 43.13696289 C2 44 2 44 0 44 C0.0721875 43.35417969 0.144375 42.70835937 0.21875 42.04296875 C1.5984507 28.03517417 1.34018369 13.99747408 0 0 Z "
     fill="#040201"
     transform="translate(327,182)"
     id="path13" />
</svg>
